
        <svg xmlns="http://www.w3.org/2000/svg" xmlns:xlink="http://www.w3.org/1999/xlink" version="1.1" width="3207.4740238999193" 
        height="879.6898613356577" viewBox="0 0 3207.4740238999193 879.6898613356577">
			
			<g transform="scale(10.373701194995963) translate(10, 10)">
				<defs id="SvgjsDefs3139"></defs><g id="SvgjsG3140" featureKey="nameLeftFeature-0" transform="matrix(1.0975608734911595,0,0,1.0975608734911595,-2.1951196535510875,6.658537989496557)" fill="#111111"><path d="M2 40 l0 -32 l3.6 0 l4.2 20 l0.4 0 l4.2 -20 l3.6 0 l0 32 l-4 0 l0 -16 l-2.84 16 l-2.4 0 l-2.76 -16 l0 16 l-4 0 z M22.1 23.16 c0 -11.16 0.24 -15.56 6.24 -15.56 s6.24 4.4 6.24 15.56 c0 12.8 -0.24 17.24 -6.24 17.24 s-6.24 -4.44 -6.24 -17.24 z M26.1 23.16 c0 11.56 0 13.24 2.24 13.24 s2.24 -1.68 2.24 -13.24 c0 -10.4 0 -12.36 -2.24 -12.36 s-2.24 1.96 -2.24 12.36 z M38.28 23.16 c0 -11.16 0.24 -15.56 6.24 -15.56 s6.24 4.4 6.24 15.56 c0 12.8 -0.24 17.24 -6.24 17.24 s-6.24 -4.44 -6.24 -17.24 z M42.28 23.16 c0 11.56 0 13.24 2.24 13.24 s2.24 -1.68 2.24 -13.24 c0 -10.4 0 -12.36 -2.24 -12.36 s-2.24 1.96 -2.24 12.36 z M54.86 40 l0 -32 l4 0 l0 28 l5.2 0 l0 4 l-9.2 0 z M66.96 40 l0 -16.8 c0 -11.16 0 -15.56 6 -15.56 s6 4.4 6 15.56 l0 16.8 l-4 0 l0 -9.2 l-4 0 l0 9.2 l-4 0 z M70.96 27.6 l4 0 l0 -4.4 c0 -10.4 0 -12.36 -2 -12.36 s-2 1.96 -2 12.36 l0 4.4 z M83.46 40 l0 -32 l4 0 l0 13.6 l4 0 l0 -13.6 l4 0 l0 32 l-4 0 l0 -15.2 l-4 0 l0 15.2 l-4 0 z"></path></g><g id="SvgjsG3141" featureKey="inlineSymbolFeature-0" transform="matrix(0.8149996233724051,0,0,0.8149996233724051,122.19280701745969,-8.348202056626558)" fill="#4a8c21"><title xmlns="http://www.w3.org/2000/svg">Artboard 2</title><path xmlns="http://www.w3.org/2000/svg" d="M1.91,75.42a3,3,0,0,1-.8-3h0A18.5,18.5,0,0,1,4.68,65.3C3.93,51.21,11.5,39.88,17,33.61l-4.9-13a3,3,0,0,1,1.25-3.65,28.48,28.48,0,0,1,13.61-3.52,3,3,0,0,1,0,6.06,23.64,23.64,0,0,0-8.18,1.59l4.06,10.81c1.42.47,3.08,1,4.48,1.33a3,3,0,0,1-1.44,5.89c-1.58-.39-3.22-.89-4.46-1.3-5,5.72-11.71,15.94-10.57,28.33L11,67.58l-1.06,1a10.41,10.41,0,0,0-2.37,3.72c2.06,1.62,4.11,2.37,5.93,2.15a2.93,2.93,0,0,1,2.87,1.63A3,3,0,0,1,14,80.52q-.56.06-1.12.06C9.21,80.57,5.35,78.81,1.91,75.42Zm97-3a18.5,18.5,0,0,0-3.58-7.16C96.07,51.21,88.5,39.88,83,33.61l4.9-13a3,3,0,0,0-1.25-3.65,28.48,28.48,0,0,0-13.61-3.52,3,3,0,0,0,0,6.06,23.64,23.64,0,0,1,8.18,1.59L77.19,31.87c-1.42.47-3.08,1-4.48,1.33a3,3,0,0,0,1.44,5.89c1.58-.39,3.22-.89,4.46-1.3,5,5.72,11.71,15.94,10.57,28.33L89,67.58l1.06,1a10.41,10.41,0,0,1,2.37,3.72c-2.06,1.62-4.11,2.37-5.93,2.15a2.93,2.93,0,0,0-2.87,1.63A3,3,0,0,0,86,80.52q.56.06,1.12.06c3.67,0,7.53-1.76,11-5.15a3,3,0,0,0,.8-3Zm-65-52.19a4.46,4.46,0,0,1,4-6.5,28.66,28.66,0,0,1,10.1,2.15l-.24-3A2.41,2.41,0,0,1,50,10.26,34.09,34.09,0,0,1,64.5,13,2.82,2.82,0,0,1,66,16.6L59.73,33.28C66,40,77.87,55.51,76.1,74.8a17.9,17.9,0,0,1,4.39,7.28,2.52,2.52,0,0,1-.74,2.71c-5.24,4.54-10.67,5.49-15,3.22A51.14,51.14,0,0,1,50,89.73,51.14,51.14,0,0,1,35.28,88c-4.36,2.27-9.79,1.32-15-3.22a2.52,2.52,0,0,1-.74-2.71A17.9,17.9,0,0,1,23.9,74.8c-1.51-16.45,6.87-30.11,13.28-38A50.2,50.2,0,0,0,50,38.47a2.33,2.33,0,0,0,2.32-2.58,2.44,2.44,0,0,0-2.48-2.09,46.78,46.78,0,0,1-9.6-1ZM52.66,50c-5.51,0-9.28,3.41-9.28,8.59a17.6,17.6,0,0,0,.33,3.33H42.48A2.07,2.07,0,0,0,40.41,64v.1a2.07,2.07,0,0,0,2.07,2.07h2a11.05,11.05,0,0,1,.12,1.64c0,2.39-1.77,4.44-3.64,5.56a2,2,0,0,0-1,1.74A2.07,2.07,0,0,0,42,77.15H56.15a2.55,2.55,0,0,0,0-5.09H47.73V72a7.07,7.07,0,0,0,2-2.92,7.7,7.7,0,0,0,.37-2.92h3a2.07,2.07,0,0,0,2.07-2.07V64a2.07,2.07,0,0,0-2.07-2.07H49.57a12.91,12.91,0,0,1-.37-3.08c0-2,.9-3.86,3.82-3.86a10.23,10.23,0,0,1,1.31.08,2.45,2.45,0,0,0,.77-4.84A13.77,13.77,0,0,0,52.66,50Z"></path></g><g id="SvgjsG3142" featureKey="nameRightFeature-0" transform="matrix(1.11248452784281,0,0,1.11248452784281,210.42892780603043,6.500617825339681)" fill="#111111"><path d="M11.3 40 l0 -32 l3.6 0 l4.2 20 l0.4 0 l4.2 -20 l3.6 0 l0 32 l-4 0 l0 -16 l-2.84 16 l-2.4 0 l-2.76 -16 l0 16 l-4 0 z M31.8 40 l0 -16.8 c0 -11.16 0 -15.56 6 -15.56 s6 4.4 6 15.56 l0 16.8 l-4 0 l0 -9.2 l-4 0 l0 9.2 l-4 0 z M35.8 27.6 l4 0 l0 -4.4 c0 -10.4 0 -12.36 -2 -12.36 s-2 1.96 -2 12.36 l0 4.4 z M46.699999999999996 11.600000000000001 l0 -3.6 l12 0 l0 3.6 l-4 0 l0 28.4 l-4 0 l0 -28.4 l-4 0 z M61.599999999999994 40 l0 -32 l9.2 0 l0 3.2 l-5.2 0 l0 10.4 l4.4 0 l0 3.2 l-4.4 0 l0 11.2 l5.2 0 l0 4 l-9.2 0 z"></path></g>
			</g>
		</svg>
	